<?xml version="1.0" encoding="utf-8"?>
<!-- Generator: Adobe Illustrator 23.0.2, SVG Export Plug-In . SVG Version: 6.00 Build 0)  -->
<svg version="1.1" xmlns="http://www.w3.org/2000/svg" xmlns:xlink="http://www.w3.org/1999/xlink" x="0px" y="0px"
	 viewBox="0 0 612 792" style="enable-background:new 0 0 612 792;" xml:space="preserve">
<style type="text/css">
	.st0{fill:#010101;}
	.st1{fill:#FFFFFF;}
	.st2{fill:#353635;}
</style>
<g id="birbbeak">
	<g id="beak_3_">
		<g id="Layer_6_3_">
			<polygon class="st0" points="432.5,242.8 432.6,242.7 473.7,221.5 445.7,217.1 418.3,212.7 			"/>
		</g>
	</g>
</g>
<g id="birbbody">
	<g id="body_2_">
		<g id="Layer_4_3_">
			<path class="st0" d="M419.4,289.9c1.1-1.4,2.3-3,3.4-4.6c21.4-32,12.8-75.1-19.1-96.5s-75.1-12.8-96.5,19.1
				c-1.8,2.7-3.3,5.3-4.7,8.2l-0.6-0.3l-82.4,123.2c-17.1,25.6-33.1,49.5-46.6,69.6c-23.8,35.5-39.5,59-39.5,59s-0.8,48.3,215.8-27
				C415.5,417.5,456.4,331.3,419.4,289.9z"/>
		</g>
	</g>
</g>
<g id="birbeye">
	<circle class="st1" cx="377.7" cy="202.9" r="9.8"/>
</g>
<g id="birbwing">
	<g id="wing_1_">
		<g id="Layer_3_1_">
			<g>
				<path class="st0" d="M217.6,433.7C194.8,466.3,40.8,599.1,40.8,599.1s113.7-161,136.5-193.6s50.1-52.6,61.3-44.9
					S240.3,401.1,217.6,433.7z"/>
				<path class="st2" d="M360.7,372.1c-21,30.2-234.4,104.4-234.4,104.4s107.3-148.1,128.3-178.3s61.8-38.2,91.1-17.7
					C375.1,300.9,381.7,342,360.7,372.1z"/>
			</g>
		</g>
	</g>
</g>
</svg>
