<?xml version="1.0" encoding="utf-8"?>
<!-- Generator: Adobe Illustrator 23.0.2, SVG Export Plug-In . SVG Version: 6.00 Build 0)  -->
<svg version="1.1" xmlns="http://www.w3.org/2000/svg" xmlns:xlink="http://www.w3.org/1999/xlink" x="0px" y="0px"
	 viewBox="0 0 792 415.3" style="enable-background:new 0 0 792 415.3;" xml:space="preserve">
<style type="text/css">
	.st0{fill:#4D3030;}
	.st1{fill:#CB9866;}
	.st2{fill:#4374B9;}
	.st3{fill:#978180;}
	.st4{fill:#2B4B73;}
	.st5{fill:#0D0E0E;}
</style>
<g id="beak">
	<polygon class="st0" points="499.7,112.9 499.8,112.9 537.3,93.5 511.7,89.5 486.7,85.5 	"/>
</g>
<g id="leg">
	<polygon class="st1" points="430,350.9 450.7,354.8 409.2,334 376.3,307.4 411.8,249.1 397.9,242 361.2,313.9 369.5,318.2 
		369.5,318.3 402.9,336.3 372.3,361 410.8,347.3 429.9,350.9 430.2,351 	"/>
</g>
<g id="burbbody">
	<path class="st2" d="M485.4,160.5c1.3-1.1,2.6-2.3,3.8-3.5c24.8-24.8,24.8-65,0-89.8c-24.8-24.8-65-24.8-89.8,0
		c-2.1,2.1-4,4.2-5.7,6.5l-0.4-0.4l-95.7,95.7c-19.9,19.9-38.5,38.5-54,54c-27.6,27.6-45.8,45.8-45.8,45.8s-9.3,43.1,197.9,14.1
		C459.3,274,511.2,204.1,485.4,160.5z"/>
</g>
<g id="tail">
	<path class="st3" d="M249.2,282C223.6,307.6,63.9,402.2,63.9,402.2s128-126.3,153.6-151.9s53.5-39.3,62.2-30.5
		C288.5,228.5,274.8,256.4,249.2,282z"/>
	<path class="st4" d="M425.1,212.6c-23.8,23.8-227.4,56.1-227.4,56.1S318,153,341.7,129.2c23.8-23.8,61.7-24.4,84.7-1.3
		S448.9,188.8,425.1,212.6z"/>
</g>
<g id="eye">
	<circle class="st5" cx="471.6" cy="84.1" r="10.2"/>
</g>
</svg>
