

<?xml version="1.0" encoding="utf-8"?>
<!-- Generator: Adobe Illustrator 23.0.2, SVG Export Plug-In . SVG Version: 6.00 Build 0)  -->
<svg version="1.1" xmlns="http://www.w3.org/2000/svg" xmlns:xlink="http://www.w3.org/1999/xlink" x="0px" y="0px"
	 viewBox="0 0 792 612" style="enable-background:new 0 0 792 612;" xml:space="preserve">
<style type="text/css">
	.st0{fill:#353535;}
</style>
<g id="beak_1_">
	<g id="beak">
		<g id="Layer_6">
			<polygon points="569.2,214.6 569.3,214.5 610.4,193.3 582.4,188.9 555,184.5 			"/>
		</g>
	</g>
</g>
<g id="leg_1_">
	<g id="leg">
		<g id="Layer_5">
			<polygon points="492.9,475.3 515.5,479.5 470,456.9 433.9,427.7 472.9,363.8 457.6,356 417.4,434.8 426.6,439.5 426.5,439.6 
				463.2,459.4 429.6,486.4 471.8,471.4 492.8,475.3 493,475.5 			"/>
		</g>
	</g>
</g>
<g id="body_1_">
	<g id="body">
		<g id="Layer_4">
			<path d="M553.5,266.7c1.4-1.2,2.8-2.5,4.2-3.9c27.2-27.2,27.2-71.2,0-98.4s-71.2-27.2-98.4,0c-2.3,2.3-4.3,4.6-6.2,7.1l-0.5-0.4
				L347.8,275.9c-21.8,21.8-42.1,42.1-59.2,59.2c-30.2,30.2-50.2,50.2-50.2,50.2s-10.2,47.2,216.9,15.5
				C524.9,391.1,581.8,314.5,553.5,266.7z"/>
		</g>
	</g>
</g>
<g id="wing_1_">
	<g id="wing">
		<g id="Layer_3">
			<g>
				<path d="M335.8,359.2C307.7,387.3,132.7,491,132.7,491S273,352.5,301.1,324.4s58.6-43,68.2-33.4S363.9,331.1,335.8,359.2z"/>
				<path class="st0" d="M487.5,323.8c-26,26-249.1,61.5-249.1,61.5s131.7-126.9,157.7-152.9s67.6-26.7,92.8-1.4
					C514.2,256.2,513.5,297.8,487.5,323.8z"/>
			</g>
		</g>
	</g>
</g>
<g id="eye_1_">
	<g id="eye">
		<g>
			<circle cx="538.5" cy="182.9" r="11.2"/>
		</g>
	</g>
</g>
</svg>

  