<?xml version="1.0" encoding="utf-8"?>
<!-- Generator: Adobe Illustrator 23.0.2, SVG Export Plug-In . SVG Version: 6.00 Build 0)  -->
<svg version="1.1" id="Layer_1" xmlns="http://www.w3.org/2000/svg" xmlns:xlink="http://www.w3.org/1999/xlink" x="0px" y="0px"
	 viewBox="0 0 792 112.7" style="enable-background:new 0 0 792 112.7;" xml:space="preserve">
<style type="text/css">
	.st0{fill:#4D3030;}
</style>
<g>
	<path class="st0" d="M1036,50.4c-208-23-416-23-626-1c-182,19-362,24-544,11c-5-1-10-1-15-2c-32-2-63-5-95-8c0,3,0,6,0,9
		c208,23,416,23,626,1c182-19,362-24,544-11c5,1,10,1,15,2c32,2,63,5,95,8C1036,56.4,1036,53.4,1036,50.4L1036,50.4z"/>
</g>
</svg>
